<?xml version="1.0" standalone="no"?>
<!DOCTYPE svg PUBLIC "-//W3C//DTD SVG 20010904//EN"
 "http://www.w3.org/TR/2001/REC-SVG-20010904/DTD/svg10.dtd">
<svg version="1.0" xmlns="http://www.w3.org/2000/svg"
 width="300.000000pt" height="186.000000pt" viewBox="0 0 300.000000 186.000000"
 preserveAspectRatio="xMidYMid meet">
<metadata>
Created by potrace 1.10, written by Peter Selinger 2001-2011
</metadata>
<g transform="translate(0.000000,186.000000) scale(0.100000,-0.100000)"
fill="#000000" stroke="none">
<path d="M2134 1814 c13 -27 32 -77 41 -110 19 -72 33 -284 18 -284 -6 0 -13
19 -15 43 -10 86 -85 236 -160 319 l-39 43 31 -48 c40 -61 80 -149 115 -255
30 -92 29 -116 -4 -50 -25 53 -107 134 -183 182 -32 20 -58 34 -58 32 0 -3 23
-27 51 -53 28 -26 72 -77 97 -112 25 -35 48 -59 50 -52 2 6 -3 23 -12 36 -9
14 -14 25 -11 25 2 0 17 -19 31 -42 35 -55 51 -71 64 -63 6 4 17 1 25 -5 29
-24 45 6 45 86 0 68 9 90 25 64 9 -15 32 5 52 43 19 38 29 50 80 103 24 24 47
44 53 44 5 0 -8 -29 -30 -65 -41 -66 -47 -89 -31 -114 7 -11 15 -10 42 10 l33
24 -23 -38 c-35 -57 -15 -68 46 -26 56 40 142 81 156 76 6 -2 -5 -12 -24 -24
-52 -30 -164 -138 -182 -175 -25 -52 -4 -55 52 -8 50 41 151 89 151 71 0 -6
-5 -13 -12 -17 -15 -9 18 -34 46 -34 13 0 1 -9 -29 -24 -28 -13 -59 -31 -69
-41 -17 -17 -17 -20 -2 -31 10 -7 33 -10 57 -7 48 7 51 -9 4 -26 -19 -7 -49
-24 -65 -38 l-31 -25 21 -18 c20 -18 22 -17 73 17 69 47 70 48 12 25 -27 -11
-59 -23 -70 -27 -20 -7 -20 -7 0 10 43 36 110 58 200 64 l90 6 -73 19 c-53 13
-95 17 -150 14 l-77 -5 65 30 c51 25 82 32 150 35 l85 5 -40 14 c-22 8 -76 18
-120 22 l-80 7 45 14 c25 8 77 14 117 15 39 0 69 3 67 7 -9 14 -121 30 -175
25 -73 -6 -137 -35 -193 -87 -25 -24 -46 -38 -46 -32 0 5 38 46 85 90 80 76
131 108 255 160 l25 11 -25 0 c-56 1 -167 -21 -215 -43 -27 -12 -68 -39 -89
-59 -22 -21 -41 -36 -43 -33 -9 9 105 120 151 147 28 17 40 27 26 24 -43 -11
-153 -65 -187 -91 -18 -14 -33 -21 -33 -17 0 16 72 128 103 162 18 18 50 47
72 64 39 29 39 29 10 23 -101 -24 -210 -109 -269 -208 l-34 -58 -12 48 c-14
55 -69 164 -105 207 l-26 30 25 -51z"/>
<path d="M445 1812 c48 -30 109 -105 150 -183 l37 -70 -49 37 c-47 36 -122 74
-173 88 -16 4 -10 -1 14 -15 42 -23 128 -106 147 -142 7 -12 -10 -2 -42 26
-67 58 -141 87 -239 93 l-75 5 52 -20 c28 -10 76 -35 105 -55 50 -32 157 -134
192 -181 12 -15 15 -16 16 -5 0 29 -91 130 -175 192 -39 29 -39 29 -10 22 32
-7 91 -39 114 -62 56 -54 101 -49 68 8 -20 34 -17 37 18 14 63 -41 57 33 -11
132 -37 53 -38 58 -5 35 33 -24 111 -120 111 -138 0 -5 10 -19 23 -31 18 -17
26 -19 35 -10 9 9 12 -3 12 -54 0 -71 7 -101 21 -92 5 3 9 42 9 87 0 96 30
232 65 294 41 75 11 46 -37 -34 -45 -75 -78 -155 -78 -191 -1 -9 -13 8 -27 38
-48 100 -172 204 -269 225 l-29 7 30 -20z"/>
<path d="M962 1753 c-79 -101 -132 -207 -156 -315 -12 -50 -12 -59 -2 -45 8
10 20 15 29 11 10 -3 27 10 51 42 35 46 48 54 24 14 -10 -16 -10 -23 3 -35 14
-14 18 -14 40 7 54 52 58 48 18 -17 -41 -69 -51 -107 -31 -127 7 -7 21 -2 45
16 18 14 38 26 43 26 5 0 2 -6 -7 -13 -27 -21 -42 -58 -29 -71 8 -8 22 -5 53
12 l42 23 -33 -28 c-47 -41 -39 -47 19 -13 65 39 157 70 211 71 36 1 39 2 18
9 -36 12 -139 12 -180 0 -20 -5 -57 -23 -83 -40 -63 -40 -58 -25 11 32 52 43
147 98 196 113 44 13 5 13 -59 0 -84 -18 -163 -55 -210 -99 -44 -42 -44 -29 0
52 46 82 81 126 128 159 20 14 35 28 33 30 -10 10 -139 -62 -176 -99 -22 -21
-42 -38 -45 -38 -9 0 71 112 107 151 18 19 44 43 57 52 14 9 23 19 20 21 -9
10 -129 -74 -174 -120 -25 -26 -53 -65 -63 -86 -40 -87 -28 -18 21 118 17 47
67 145 98 192 29 44 17 41 -19 -5z"/>
<path d="M1903 1538 c39 -39 77 -90 100 -134 20 -40 37 -75 37 -79 0 -4 -18 9
-40 28 -52 48 -106 74 -197 98 -107 27 -109 24 -18 -20 44 -21 107 -62 140
-89 70 -59 87 -53 23 8 -37 36 -24 43 14 8 46 -43 58 -49 77 -43 20 6 20 6 1
57 -10 28 -31 68 -45 89 -28 44 -21 52 14 15 13 -13 32 -27 43 -30 16 -4 12 5
-18 35 -41 43 -94 77 -157 104 -37 15 -37 15 26 -47z"/>
<path d="M195 1496 l-40 -12 85 -6 c47 -3 101 -12 120 -20 l35 -16 -55 1 c-60
0 -168 -21 -176 -35 -4 -5 9 -6 29 -3 46 9 128 -9 195 -41 62 -30 62 -40 2
-24 -47 13 -151 0 -205 -25 l-30 -14 36 5 c67 10 231 -39 254 -76 9 -14 -1
-13 -43 9 -66 33 -90 35 -41 3 42 -27 68 -52 55 -52 -3 0 -21 11 -41 24 -77
53 -179 44 -303 -25 -41 -22 -72 -42 -70 -44 2 -2 30 6 63 17 47 16 76 19 132
15 85 -6 134 -26 66 -27 -52 0 -122 -26 -188 -69 -27 -18 -41 -29 -30 -25 119
44 131 46 209 41 43 -3 83 -11 90 -17 8 -10 3 -11 -23 -6 -19 3 -51 3 -70 -1
-33 -7 -31 -8 29 -13 38 -4 89 -17 124 -33 73 -34 70 -44 -5 -16 -35 14 -84
22 -139 25 l-85 3 70 -10 c39 -5 97 -22 130 -38 58 -26 61 -27 79 -10 18 17
18 19 -10 43 -16 14 -35 26 -42 26 -7 0 -24 12 -38 28 -14 15 -29 27 -32 28
-25 3 -62 17 -62 24 0 4 10 11 23 14 l22 6 -28 25 c-18 16 -40 25 -63 25 -45
0 -44 16 2 23 40 7 92 -1 112 -16 6 -5 12 -6 12 -3 0 4 10 0 22 -8 29 -21 40
-20 69 5 27 24 20 42 -28 74 -73 48 -71 46 -28 40 83 -11 85 29 4 71 l-53 26
34 14 c26 11 31 17 22 26 -7 7 -12 16 -12 21 0 22 93 -31 154 -87 42 -40 43
-24 1 23 -20 22 -64 54 -97 71 -52 25 -72 30 -132 29 -39 0 -89 -6 -111 -13z"/>
<path d="M1660 1351 c-11 -8 -4 -11 31 -11 57 0 139 -28 204 -68 53 -33 76
-33 36 -1 -17 14 -19 19 -8 19 9 0 19 -4 22 -10 3 -5 16 -10 27 -10 20 0 20 1
-3 19 -61 47 -112 65 -204 68 -52 2 -96 0 -105 -6z"/>
<path d="M1681 1255 c-30 -9 -57 -18 -60 -20 -2 -3 25 -5 61 -5 68 0 123 -15
196 -53 57 -30 53 -39 -7 -17 -27 11 -73 22 -102 25 l-54 5 40 -13 c128 -43
242 -139 303 -255 19 -35 32 -65 30 -66 -1 -2 -85 20 -184 48 l-181 52 -24
-62 c-12 -35 -22 -66 -21 -71 1 -9 73 -26 80 -18 3 3 -9 10 -26 16 -36 13 -37
14 -18 60 22 53 16 53 146 15 197 -56 200 -57 253 -47 60 11 155 -1 225 -27
l48 -19 45 40 c87 78 217 123 324 114 33 -3 69 -8 80 -12 14 -6 17 -5 10 3
-40 42 -296 59 -282 18 2 -6 -26 -28 -62 -48 -36 -20 -79 -49 -94 -63 l-29
-27 -56 16 c-31 8 -84 18 -117 21 -97 10 -100 11 -121 57 -23 51 -41 75 -116
150 -31 32 -52 60 -47 63 15 10 11 21 -17 49 -15 14 -44 31 -65 36 -22 6 -39
15 -39 20 0 13 9 13 76 -5 66 -17 77 -14 39 11 -37 24 -163 29 -234 9z"/>
<path d="M2685 1261 c-37 -9 -91 -37 -100 -51 -9 -14 -3 -13 50 10 47 20 111
24 170 11 28 -6 27 -7 -18 -14 -26 -4 -62 -14 -79 -23 l-31 -16 24 -19 24 -18
-32 -7 c-18 -3 -44 -17 -59 -30 -14 -14 -40 -30 -57 -38 -18 -7 -41 -23 -51
-35 -18 -19 -13 -19 45 8 37 18 94 34 134 40 l70 8 -70 2 c-84 2 -72 17 21 26
65 7 169 -13 211 -40 30 -20 43 -19 18 1 -45 35 -160 86 -208 91 -45 6 -48 7
-26 16 46 17 170 11 229 -11 53 -21 54 -21 30 -2 -81 65 -224 109 -295 91z"/>
<path d="M1073 1225 c-18 -8 -33 -17 -33 -21 0 -3 15 -3 33 1 17 3 55 8 82 10
44 4 47 3 20 -6 -16 -6 -35 -11 -41 -12 -19 -4 -83 -51 -89 -65 -2 -7 14 -2
38 12 63 37 151 59 214 54 67 -6 57 6 -23 26 -76 20 -158 20 -201 1z"/>
<path d="M1145 1146 c-63 -16 -95 -33 -95 -51 0 -8 -4 -15 -10 -15 -15 0 -88
-81 -132 -147 -23 -35 -49 -65 -57 -67 -9 -2 -50 -12 -91 -20 -41 -9 -93 -23
-115 -30 -39 -14 -40 -14 -77 20 -21 18 -62 48 -92 64 -35 20 -53 36 -50 45 4
9 -10 17 -50 25 -58 12 -133 4 -195 -22 -30 -12 -24 -13 71 -13 98 0 107 -2
178 -36 76 -37 160 -101 148 -114 -3 -4 -94 -16 -202 -27 l-196 -21 0 -75 0
-74 43 5 c23 4 68 9 100 13 91 10 66 24 -34 17 l-90 -6 2 51 2 50 66 7 c36 4
74 9 84 11 9 1 54 6 100 10 119 10 118 9 125 21 12 18 145 61 229 74 l80 12
22 43 c32 60 121 156 181 194 28 18 76 40 108 51 43 14 50 18 27 18 -16 -1
-52 -6 -80 -13z"/>
<path d="M2660 1050 c-66 -12 -130 -39 -124 -55 4 -9 24 -5 81 17 56 22 93 29
146 30 47 0 65 4 52 9 -25 10 -95 9 -155 -1z"/>
<path d="M1145 957 c-224 -100 -256 -117 -250 -126 3 -6 18 -3 38 7 18 10 92
45 165 77 145 64 153 64 178 7 l14 -33 -54 -25 c-57 -26 -102 -64 -55 -45 98
37 141 62 131 74 -6 7 -21 35 -34 63 l-24 51 -109 -50z"/>
<path d="M1242 813 c-74 -5 -75 -23 -1 -23 l49 0 0 -47 c0 -27 4 -43 9 -37 10
11 23 115 13 112 -4 -1 -35 -3 -70 -5z"/>
<path d="M2505 803 c-55 -2 -104 -8 -110 -14 -6 -6 56 -8 180 -7 l190 3 6 -38
c3 -22 1 -41 -5 -46 -6 -5 -44 -12 -85 -15 -41 -3 -76 -8 -79 -11 -13 -13 12
-15 102 -9 78 6 96 10 91 21 -3 8 -5 39 -5 69 l0 54 -92 -2 c-51 -1 -138 -4
-193 -5z"/>
<path d="M1654 744 l6 -45 -93 3 c-50 1 -129 2 -174 0 -73 -2 -83 -4 -83 -20
0 -18 -15 -19 -202 -26 -270 -9 -350 -27 -521 -112 -71 -36 -160 -88 -198
-115 -129 -94 -228 -223 -288 -376 -17 -44 -18 -53 -6 -53 8 0 15 5 15 11 0
20 78 177 107 216 91 122 219 226 371 302 161 80 250 100 512 113 150 7 209
14 221 24 12 11 51 14 166 14 l151 0 6 -26 7 -27 184 7 c102 4 194 9 205 11
22 4 185 -29 308 -64 58 -16 217 -93 327 -158 11 -6 34 -19 52 -28 39 -20 128
-121 168 -190 16 -27 39 -84 51 -125 12 -41 27 -76 34 -78 13 -5 14 -7 -19
105 -23 79 -95 195 -158 255 -21 20 -115 76 -215 127 -151 78 -197 97 -315
128 -151 40 -239 45 -497 29 l-119 -8 7 54 c8 60 14 68 59 85 32 11 31 11 -22
12 l-54 1 7 -46z"/>
<path d="M2580 665 c1 -18 26 -44 56 -57 24 -11 119 -64 133 -75 2 -1 -8 -18
-23 -38 -15 -19 -26 -43 -24 -52 2 -11 16 2 42 40 22 31 37 59 35 60 -2 2 -49
28 -104 57 -55 30 -103 58 -107 64 -5 7 -8 7 -8 1z"/>
<path d="M389 612 c-2 -5 -37 -26 -77 -46 -81 -41 -79 -30 -25 -123 l24 -42
50 30 c27 17 49 32 49 34 0 8 -44 -5 -67 -20 -14 -9 -26 -15 -27 -13 -22 30
-45 82 -40 89 3 5 27 20 53 33 48 25 78 52 68 62 -2 3 -7 1 -8 -4z"/>
<path d="M925 266 c-44 -23 -128 -68 -187 -100 -60 -32 -109 -54 -109 -49 -1
4 -1 15 0 25 4 39 -44 28 -87 -21 -13 -14 -35 -39 -48 -54 -19 -21 -29 -26
-38 -17 -18 14 -41 4 -55 -26 -9 -20 -9 -25 1 -22 7 2 17 14 23 26 13 29 25
28 25 -3 0 -34 22 -32 43 4 21 37 105 121 119 121 6 0 -6 -20 -26 -45 -26 -31
-33 -45 -22 -45 17 0 336 161 402 203 l41 26 84 -44 c46 -25 88 -45 93 -45 4
0 5 21 1 46 -6 42 -5 45 12 36 16 -9 245 -74 336 -96 27 -6 26 -5 -13 35 -22
23 -40 45 -40 49 0 4 21 -3 48 -16 47 -23 211 -68 218 -61 7 7 -47 97 -58 97
-6 0 -7 -8 -3 -17 22 -53 22 -53 -67 -26 -45 14 -87 28 -93 32 -5 4 -19 7 -30
7 -15 -1 -20 -7 -18 -28 1 -16 -3 -28 -8 -28 -20 0 -214 52 -224 60 -14 12
-58 16 -72 7 -7 -5 -13 -19 -13 -33 0 -13 -2 -24 -5 -24 -11 0 -79 31 -85 38
-7 10 -48 32 -57 31 -5 0 -44 -19 -88 -43z"/>
<path d="M1690 305 c0 -22 221 -96 413 -139 13 -3 8 8 -19 45 -19 27 -33 49
-30 49 3 0 22 -11 43 -26 48 -33 140 -75 230 -107 l72 -26 -16 37 c-8 20 -24
54 -34 74 -41 81 -3 51 59 -47 43 -68 128 -165 144 -165 17 0 6 18 -46 72 -29
31 -67 81 -85 112 -37 67 -75 96 -96 75 -12 -12 -11 -20 5 -58 11 -24 20 -47
20 -51 0 -11 -148 49 -223 90 -55 30 -95 34 -84 7 20 -49 21 -47 -14 -40 -56
10 -180 49 -248 77 -61 25 -91 32 -91 21z"/>
<path d="M2555 111 c-11 -18 15 -111 31 -111 10 0 9 10 -6 46 -30 69 -23 77
11 12 16 -32 34 -58 39 -58 14 0 12 12 -5 34 -8 10 -13 22 -11 25 2 3 -9 19
-24 35 -19 19 -30 25 -35 17z"/>
</g>
</svg>
